<?xml version="1.0" encoding="UTF-8" standalone="no"?>
<svg
   xmlns:dc="http://purl.org/dc/elements/1.1/"
   xmlns:cc="http://creativecommons.org/ns#"
   xmlns:rdf="http://www.w3.org/1999/02/22-rdf-syntax-ns#"
   xmlns:svg="http://www.w3.org/2000/svg"
   xmlns="http://www.w3.org/2000/svg"
   xmlns:sodipodi="http://sodipodi.sourceforge.net/DTD/sodipodi-0.dtd"
   xmlns:inkscape="http://www.inkscape.org/namespaces/inkscape"
   version="1.1"
   id="Layer_1"
   x="0px"
   y="0px"
   viewBox="0 0 226.77 226.77"
   style="enable-background:new 0 0 226.77 226.77;"
   xml:space="preserve"
   sodipodi:docname="quart_wtf_full_logo_color.svg"
   inkscape:version="1.0.1 (c497b03c, 2020-09-10)"><metadata
   id="metadata881"><rdf:RDF><cc:Work
       rdf:about=""><dc:format>image/svg+xml</dc:format><dc:type
         rdf:resource="http://purl.org/dc/dcmitype/StillImage" /><dc:title></dc:title></cc:Work></rdf:RDF></metadata><defs
   id="defs879" /><sodipodi:namedview
   pagecolor="#ffffff"
   bordercolor="#666666"
   borderopacity="1"
   objecttolerance="10"
   gridtolerance="10"
   guidetolerance="10"
   inkscape:pageopacity="0"
   inkscape:pageshadow="2"
   inkscape:window-width="1920"
   inkscape:window-height="959"
   id="namedview877"
   showgrid="false"
   inkscape:zoom="2.9457159"
   inkscape:cx="113.385"
   inkscape:cy="113.385"
   inkscape:window-x="0"
   inkscape:window-y="25"
   inkscape:window-maximized="1"
   inkscape:current-layer="layer3"
   inkscape:document-rotation="0"
   inkscape:lockguides="true" />
<path
   style="fill:#B7895B;"
   d="M34.777,66.865l-17.058,4.817c-1.022,0.269-2.075-0.316-2.386-1.326L10.56,53.387  c-0.269-1.022,0.316-2.076,1.326-2.387l17.058-4.817c1.022-0.269,2.075,0.316,2.386,1.326l4.773,16.969  C36.412,65.495,35.793,66.555,34.777,66.865z"
   id="path833"
   inkscape:export-xdpi="96"
   inkscape:export-ydpi="96"
   inkscape:export-filename="/Users/chrisrood/Desktop/quart-wtf/logo.png" />
<path
   style="fill:#C49A6C;"
   d="M13.874,60.545l-1.193-4.286c-0.619-2.165,0.663-4.375,2.784-4.994l10.606-3.005  c2.165-0.619,4.375,0.663,4.994,2.784l1.193,4.286C32.258,55.33,13.874,60.545,13.874,60.545z"
   id="path835"
   inkscape:export-xdpi="96"
   inkscape:export-ydpi="96"
   inkscape:export-filename="/Users/chrisrood/Desktop/quart-wtf/logo.png" />
<path
   style="fill:#B7895B;"
   d="M23.552,57.806c0,0,5.612-7.38,1.591-9.28l2.607-1.37l3.359,2.298l1.723,6.187  C32.832,55.641,23.552,57.806,23.552,57.806z"
   id="path837"
   inkscape:export-xdpi="96"
   inkscape:export-ydpi="96"
   inkscape:export-filename="/Users/chrisrood/Desktop/quart-wtf/logo.png" />
<path
   style="fill:#99D5E8;"
   d="M12.856,64.045l22.329-6.306l13.044,46.188l-22.328,6.306L12.856,64.045z"
   id="path839"
   inkscape:export-xdpi="96"
   inkscape:export-ydpi="96"
   inkscape:export-filename="/Users/chrisrood/Desktop/quart-wtf/logo.png" />
<ellipse
   transform="matrix(0.9624 -0.2718 0.2718 0.9624 -32.6596 16.9089)"
   style="fill:#99D5E8;"
   cx="44.712"
   cy="126.356"
   rx="43.751"
   ry="43.751"
   id="ellipse841"
   inkscape:export-xdpi="96"
   inkscape:export-ydpi="96"
   inkscape:export-filename="/Users/chrisrood/Desktop/quart-wtf/logo.png" />
<ellipse
   transform="matrix(0.9624 -0.2718 0.2718 0.9624 -32.6596 16.9089)"
   style="fill:#BCE3F4;"
   cx="44.712"
   cy="126.356"
   rx="41.497"
   ry="41.497"
   id="ellipse843"
   inkscape:export-xdpi="96"
   inkscape:export-ydpi="96"
   inkscape:export-filename="/Users/chrisrood/Desktop/quart-wtf/logo.png" />
<path
   style="fill:#BCE3F4;"
   d="M35.44,62.092l-20.77,5.877c-1.679,0.486-3.403-0.53-3.889-2.165  c-0.486-1.679,0.53-3.403,2.165-3.889l20.77-5.877c1.679-0.486,3.403,0.53,3.889,2.165C38.091,59.838,37.119,61.606,35.44,62.092z"
   id="path845"
   inkscape:export-xdpi="96"
   inkscape:export-ydpi="96"
   inkscape:export-filename="/Users/chrisrood/Desktop/quart-wtf/logo.png" />
<path
   style="opacity:0.35;fill:#FFFFFF;enable-background:new    ;"
   d="M35.086,96.605c3.977,4.11-6.408,4.198-13.08,10.65  s-7.159,16.837-11.136,12.683c-3.977-4.11-1.768-12.683,4.905-19.135C22.492,94.351,31.109,92.451,35.086,96.605z"
   id="path847"
   inkscape:export-xdpi="96"
   inkscape:export-ydpi="96"
   inkscape:export-filename="/Users/chrisrood/Desktop/quart-wtf/logo.png" />
<path
   style="fill:#BCE3F4;"
   d="M16.081,68.906l19.054-5.381l6.378,22.583l-19.054,5.381L16.081,68.906z"
   id="path849"
   inkscape:export-xdpi="96"
   inkscape:export-ydpi="96"
   inkscape:export-filename="/Users/chrisrood/Desktop/quart-wtf/logo.png" />
<path
   style="fill:#99D5E8;"
   d="M35.086,63.506c0,0,0.928,21.742-5.612,23.996c0,0,21.919-3.756,31.155,0.53  c0,0-11.313-4.596-15.644-3.756C40.61,85.071,35.086,63.506,35.086,63.506z"
   id="path851"
   inkscape:export-xdpi="96"
   inkscape:export-ydpi="96"
   inkscape:export-filename="/Users/chrisrood/Desktop/quart-wtf/logo.png" />
<linearGradient
   id="SVGID_1_"
   gradientUnits="userSpaceOnUse"
   x1="6.7409"
   y1="129.5471"
   x2="82.6596"
   y2="129.5471"
   gradientTransform="matrix(1 0 0 1 0 -0.05)">
	<stop
   offset="0"
   style="stop-color:#FAEB48"
   id="stop853" />
	<stop
   offset="0.04"
   style="stop-color:#FEE72F"
   id="stop855" />
	<stop
   offset="0.117"
   style="stop-color:#FFD51D"
   id="stop857" />
	<stop
   offset="0.196"
   style="stop-color:#FDCA12"
   id="stop859" />
	<stop
   offset="0.281"
   style="stop-color:#FDC710"
   id="stop861" />
	<stop
   offset="0.668"
   style="stop-color:#F39040"
   id="stop863" />
	<stop
   offset="0.888"
   style="stop-color:#ED683C"
   id="stop865" />
	<stop
   offset="1"
   style="stop-color:#E83E3B"
   id="stop867" />
</linearGradient>
<path
   style="fill:url(#SVGID_1_);"
   d="M67.168,95.721c7.778,2.43,11.666,11.799,14.053,20.284  c5.701,20.195-6.054,41.142-26.205,46.842s-41.142-6.054-46.842-26.205c-1.8-6.358-1.906-13.076-0.309-19.488  c0,0,9.147,14.583,25.056,7.336C48.829,117.286,45.824,89.048,67.168,95.721z"
   id="path870"
   inkscape:export-xdpi="96"
   inkscape:export-ydpi="96"
   inkscape:export-filename="/Users/chrisrood/Desktop/quart-wtf/logo.png" />


<g
   inkscape:groupmode="layer"
   id="layer1"
   inkscape:label="Quart Bcrypt"><text
     xml:space="preserve"
     style="font-size:44.9102px;line-height:1.25;font-family:'IM FELL English';-inkscape-font-specification:'IM FELL English';stroke-width:1.12275"
     x="119.90627"
     y="99.060265"
     id="text885"
     transform="scale(0.73456319,1.3613533)"
     inkscape:export-xdpi="96"
     inkscape:export-ydpi="96"
     inkscape:export-filename="/Users/chrisrood/Desktop/quart-wtf/logo.png"><tspan
       id="tspan883"
       x="119.90627"
       y="99.060265"
       sodipodi:role="line"
       style="font-size:33.6827px;stroke-width:1.12275">Quart WTF</tspan></text></g><g
   inkscape:groupmode="layer"
   id="layer3"
   inkscape:label="WTF Logo"><path
     d="m 49.615128,136.02064 h -0.939473 v 7.75717 h 0.939473 z"
     fill="#282828"
     id="path973"
     style="stroke-width:0.217042"
     inkscape:export-filename="/Users/chrisrood/Desktop/quart-wtf/logo.png"
     inkscape:export-xdpi="96"
     inkscape:export-ydpi="96" /><path
     d="m 22.461673,139.59964 c -0.04042,-0.16759 -0.07072,-0.30826 -0.09092,-0.42198 h -0.681877 c -0.02526,0.10774 -0.06061,0.25439 -0.10607,0.43993 -0.04546,0.18554 -0.09596,0.38907 -0.151529,0.61052 -0.0505,0.22146 -0.106069,0.44591 -0.16668,0.67337 -0.05556,0.22745 -0.10607,0.43693 -0.151529,0.62847 0,-0.31124 0.0025,-0.64343 0.0076,-0.99658 0.005,-0.35913 0.01011,-0.72423 0.01515,-1.09534 l 0.01515,-1.13126 c 0.005,-0.37708 0.01011,-0.74219 0.01515,-1.09534 h -0.863712 c 0.01011,0.44891 0.02273,0.91578 0.03789,1.4006 0.01515,0.47885 0.03284,0.95767 0.05304,1.43652 0.02526,0.47284 0.05304,0.94271 0.08334,1.40958 0.03031,0.46089 0.06566,0.89782 0.10607,1.31081 h 0.772794 c 0.101025,-0.37708 0.212139,-0.78708 0.333362,-1.23001 0.121222,-0.44293 0.237401,-0.85293 0.348515,-1.23002 0.111114,0.39505 0.222248,0.81104 0.333362,1.24798 0.111114,0.43095 0.222248,0.83497 0.333362,1.21205 h 0.772794 c 0.03535,-0.41299 0.06566,-0.84992 0.09092,-1.31081 0.03031,-0.46089 0.05556,-0.92776 0.07576,-1.40061 0.0202,-0.47884 0.03789,-0.95766 0.05304,-1.43651 0.01515,-0.48482 0.03031,-0.95469 0.04546,-1.40958 h -0.863712 c 0,0.35315 0.0025,0.72126 0.0076,1.10432 0.0051,0.37709 0.01011,0.75117 0.01515,1.12228 0.005,0.37111 0.01011,0.73621 0.01515,1.09534 0.0051,0.35315 0.0076,0.68534 0.0076,0.99658 -0.05557,-0.24541 -0.113648,-0.48482 -0.174259,-0.71826 -0.05557,-0.23343 -0.108602,-0.45191 -0.159105,-0.65541 -0.04546,-0.20349 -0.08838,-0.38906 -0.128799,-0.55664 z"
     fill="#282828"
     id="path975"
     style="stroke-width:0.217042"
     inkscape:export-filename="/Users/chrisrood/Desktop/quart-wtf/logo.png"
     inkscape:export-xdpi="96"
     inkscape:export-ydpi="96" /><path
     d="m 27.515138,138.12721 v -0.91578 h -3.409384 v 0.91578 h 1.234955 v 4.64173 h 0.939474 v -4.64173 z"
     fill="#282828"
     id="path977"
     style="stroke-width:0.217042"
     inkscape:export-filename="/Users/chrisrood/Desktop/quart-wtf/logo.png"
     inkscape:export-xdpi="96"
     inkscape:export-ydpi="96" /><path
     d="m 28.181862,142.76894 v -5.55751 h 2.87146 v 0.91578 h -1.939561 v 1.34673 h 1.697116 v 0.91578 h -1.697116 v 2.37922 z"
     fill="#282828"
     id="path979"
     style="stroke-width:0.217042"
     inkscape:export-filename="/Users/chrisrood/Desktop/quart-wtf/logo.png"
     inkscape:export-xdpi="96"
     inkscape:export-ydpi="96" /><path
     fill-rule="evenodd"
     clip-rule="evenodd"
     d="m 34.947596,141.56586 c 0.08081,-0.27532 0.121223,-0.58058 0.121223,-0.91577 0,-0.3292 -0.04041,-0.62848 -0.121223,-0.89782 -0.08081,-0.27533 -0.196986,-0.50876 -0.348514,-0.70031 -0.146484,-0.19752 -0.323254,-0.34714 -0.530349,-0.44891 -0.202031,-0.10773 -0.426811,-0.1616 -0.674301,-0.1616 -0.242445,0 -0.467205,0.0539 -0.6743,0.1616 -0.207095,0.10177 -0.386397,0.25139 -0.537925,0.44891 -0.146484,0.19155 -0.262642,0.42498 -0.348515,0.70031 -0.08081,0.26934 -0.121223,0.56862 -0.121223,0.89782 0,0.33519 0.04042,0.64045 0.121223,0.91577 0.08081,0.26935 0.194455,0.50278 0.340938,0.7003 0.151529,0.19753 0.328318,0.35016 0.530349,0.45789 0.207095,0.10774 0.4369,0.16161 0.689453,0.16161 0.252554,0 0.479846,-0.0539 0.681877,-0.16161 0.207095,-0.10773 0.383865,-0.26036 0.530349,-0.45789 0.146484,-0.19752 0.26013,-0.43095 0.340938,-0.7003 z m -2.121394,0.009 c -0.111114,-0.23343 -0.166682,-0.53869 -0.166682,-0.91577 0,-0.37709 0.06061,-0.67935 0.181834,-0.9068 0.126267,-0.23344 0.310633,-0.35015 0.553078,-0.35015 0.252554,0 0.434388,0.11671 0.545502,0.35015 0.116178,0.22745 0.174258,0.52971 0.174258,0.9068 0,0.37708 -0.06314,0.68234 -0.189411,0.91577 -0.121223,0.23344 -0.303056,0.35015 -0.545502,0.35015 -0.252553,0 -0.436899,-0.11671 -0.553077,-0.35015 z"
     fill="#282828"
     id="path981"
     style="stroke-width:0.217042"
     inkscape:export-filename="/Users/chrisrood/Desktop/quart-wtf/logo.png"
     inkscape:export-xdpi="96"
     inkscape:export-ydpi="96" /><path
     d="m 38.591849,139.67146 c -0.06061,-0.018 -0.133783,-0.0359 -0.219716,-0.0539 -0.08075,-0.018 -0.164089,-0.0329 -0.250021,-0.0449 -0.08593,-0.018 -0.169274,-0.0299 -0.250022,-0.0359 -0.08075,-0.006 -0.148937,-0.009 -0.204563,-0.009 -0.131391,0 -0.26019,0.009 -0.386397,0.0269 -0.126207,0.012 -0.255006,0.0389 -0.386397,0.0808 v 3.1334 h -0.939474 v -3.94144 c 0.247429,-0.10774 0.500042,-0.19452 0.75764,-0.26037 0.262582,-0.0659 0.568231,-0.0988 0.916746,-0.0988 0.05044,0 0.121222,0.003 0.212139,0.009 0.0959,0.006 0.196987,0.018 0.303057,0.0359 0.106069,0.012 0.212139,0.0299 0.318209,0.0539 0.111054,0.018 0.209548,0.0449 0.29548,0.0808 z"
     fill="#282828"
     id="path983"
     style="stroke-width:0.217042"
     inkscape:export-filename="/Users/chrisrood/Desktop/quart-wtf/logo.png"
     inkscape:export-xdpi="96"
     inkscape:export-ydpi="96" /><path
     d="m 42.152761,138.61203 c -0.126207,-0.0718 -0.287903,-0.10774 -0.48489,-0.10774 -0.126207,0 -0.247429,0.0269 -0.363667,0.0808 -0.116238,0.0479 -0.217125,0.10474 -0.303057,0.17059 -0.07576,-0.0898 -0.166681,-0.15263 -0.272751,-0.18854 -0.101085,-0.0419 -0.217123,-0.0628 -0.348514,-0.0628 -0.146544,0 -0.315618,0.018 -0.50762,0.0539 -0.192002,0.0359 -0.386397,0.0868 -0.583383,0.15263 v 4.05815 h 0.75764 v -3.31296 c 0.04047,-0.012 0.08075,-0.021 0.121223,-0.0269 0.04546,-0.006 0.08334,-0.009 0.113646,-0.009 0.10607,0 0.181834,0.0569 0.227292,0.17059 0.05045,0.11371 0.07576,0.31423 0.07576,0.60154 v 0.96964 h 0.757641 v -0.84395 c 0,-0.16759 -0.005,-0.32022 -0.01515,-0.45789 -0.01017,-0.13767 -0.02273,-0.26337 -0.03788,-0.37708 0.04047,-0.0239 0.08593,-0.0389 0.136375,-0.0449 0.05044,-0.012 0.09849,-0.018 0.143952,-0.018 0.04047,0 0.07836,0.009 0.113646,0.0269 0.04047,0.018 0.07318,0.0539 0.09849,0.10774 0.03031,0.0539 0.05304,0.13167 0.06818,0.23343 0.02014,0.10176 0.03031,0.23643 0.03031,0.40402 v 2.57675 h 0.757641 v -2.52288 c 0,-0.29328 -0.01256,-0.54767 -0.03788,-0.76315 -0.02532,-0.22145 -0.07576,-0.40402 -0.151528,-0.54767 -0.07078,-0.14365 -0.169273,-0.25139 -0.29548,-0.32322 z"
     fill="#282828"
     id="path985"
     style="stroke-width:0.217042"
     inkscape:export-filename="/Users/chrisrood/Desktop/quart-wtf/logo.png"
     inkscape:export-xdpi="96"
     inkscape:export-ydpi="96" /><path
     d="m 44.584789,141.93397 c 0.227292,0 0.40155,-0.018 0.522773,-0.0539 0.121222,-0.0419 0.181833,-0.12269 0.181833,-0.24241 0,-0.0778 -0.02017,-0.14365 -0.06061,-0.19752 -0.03529,-0.0539 -0.08833,-0.0988 -0.159105,-0.13467 -0.0656,-0.0419 -0.143952,-0.0808 -0.234869,-0.11672 -0.08593,-0.0359 -0.176849,-0.0718 -0.27275,-0.10774 -0.136376,-0.0479 -0.275343,-0.10176 -0.416703,-0.16161 -0.14136,-0.0659 -0.270159,-0.14665 -0.386397,-0.24241 -0.116238,-0.0958 -0.212139,-0.21548 -0.287904,-0.35913 -0.07576,-0.14963 -0.113645,-0.33519 -0.113645,-0.55665 0,-0.17956 0.02771,-0.34715 0.08334,-0.50278 0.06061,-0.16161 0.151528,-0.30226 0.27275,-0.42197 0.126207,-0.1257 0.285312,-0.22146 0.477314,-0.28731 0.192003,-0.0718 0.421688,-0.10773 0.689453,-0.10773 0.232278,0 0.447008,0.021 0.643999,0.0628 0.201967,0.0419 0.376228,0.10176 0.522767,0.17956 l -0.143953,0.93373 c -0.08593,-0.0299 -0.219715,-0.0778 -0.401545,-0.14365 -0.181837,-0.0718 -0.386399,-0.10774 -0.613691,-0.10774 -0.23746,0 -0.398958,0.0359 -0.48489,0.10774 -0.08075,0.0659 -0.121222,0.13768 -0.121222,0.21548 0,0.0658 0.01775,0.1257 0.05304,0.17956 0.04047,0.0479 0.09092,0.0928 0.151528,0.13468 0.0656,0.0419 0.138968,0.0838 0.219716,0.12569 0.08593,0.0359 0.17685,0.0718 0.272751,0.10774 0.136375,0.0539 0.277739,0.11372 0.424279,0.17957 0.146547,0.0658 0.277735,0.14962 0.393975,0.25139 0.121222,0.0958 0.219714,0.22145 0.295475,0.37708 0.07577,0.14963 0.113646,0.3352 0.113646,0.55665 0,0.17359 -0.02768,0.33817 -0.08334,0.4938 -0.05559,0.15563 -0.148936,0.2903 -0.28033,0.40402 -0.126205,0.11372 -0.292881,0.2035 -0.500036,0.26935 -0.207158,0.0659 -0.462165,0.0988 -0.765221,0.0988 -0.308041,0 -0.570822,-0.0419 -0.787947,-0.1257 -0.217123,-0.0838 -0.391381,-0.15861 -0.522772,-0.22445 l 0.143952,-0.92476 c 0.176849,0.0838 0.363667,0.16161 0.560654,0.23343 0.201972,0.0718 0.406534,0.10774 0.61369,0.10774 z"
     fill="#282828"
     id="path987"
     style="stroke-width:0.217042"
     inkscape:export-filename="/Users/chrisrood/Desktop/quart-wtf/logo.png"
     inkscape:export-xdpi="96"
     inkscape:export-ydpi="96" /><path
     d="m 59.677399,139.4919 -0.15153,0.9876 h -0.60612 l 0.15911,-0.9876 z"
     fill="#282828"
     id="path989"
     style="stroke-width:0.217042"
     inkscape:export-filename="/Users/chrisrood/Desktop/quart-wtf/logo.png"
     inkscape:export-xdpi="96"
     inkscape:export-ydpi="96" /><path
     fill-rule="evenodd"
     clip-rule="evenodd"
     d="m 18.931863,131.66431 c -1.541597,0 -2.791308,1.48094 -2.791308,3.30777 v 9.45075 c 0,1.82683 1.249713,3.30776 2.791308,3.30776 h 49.844796 c 1.54161,0 2.79132,-1.48093 2.79132,-3.30776 v -9.45075 c 0,-1.82683 -1.24971,-3.30777 -2.79132,-3.30777 z m -1.196274,3.30777 c 0,-0.78293 0.535592,-1.41762 1.196274,-1.41762 h 34.093841 v 12.28598 H 18.931863 c -0.660682,0 -1.196274,-0.63469 -1.196274,-1.41761 z m 44.71477,5.64209 c 0,0.0598 0.002,0.10474 0.008,0.13468 h 0.84855 c 0,-0.1257 0.0277,-0.24542 0.0833,-0.35913 0.0606,-0.11372 0.13378,-0.22446 0.21971,-0.3322 0.0909,-0.10773 0.18682,-0.21547 0.28791,-0.32321 0.10108,-0.11372 0.19439,-0.23343 0.28032,-0.35913 0.0909,-0.12569 0.16409,-0.26037 0.21972,-0.40402 0.0606,-0.14365 0.0909,-0.30226 0.0909,-0.47584 0,-0.14963 -0.0227,-0.30526 -0.0682,-0.46687 -0.0405,-0.16759 -0.11364,-0.32022 -0.21972,-0.45789 -0.10607,-0.13767 -0.25261,-0.25139 -0.43943,-0.34117 -0.18682,-0.0958 -0.42427,-0.14365 -0.71218,-0.14365 -0.23227,0 -0.46714,0.0359 -0.7046,0.10774 -0.23746,0.0718 -0.44442,0.17358 -0.62127,0.30525 l 0.2576,0.84396 c 0.17685,-0.10176 0.34094,-0.17957 0.49247,-0.23344 0.15152,-0.0598 0.30803,-0.0898 0.46973,-0.0898 0.1617,0 0.29548,0.0479 0.40155,0.14365 0.10607,0.0898 0.1591,0.22446 0.1591,0.40402 0,0.14963 -0.0504,0.29031 -0.15153,0.42198 -0.10108,0.12569 -0.20954,0.24541 -0.32578,0.35913 -0.17167,0.16758 -0.31063,0.36213 -0.4167,0.58358 -0.10607,0.21548 -0.1591,0.44293 -0.1591,0.68235 z m 0.92433,2.06499 c 0.13138,-0.13167 0.19698,-0.31423 0.19698,-0.54767 0,-0.11371 -0.0177,-0.21548 -0.053,-0.30526 -0.0353,-0.0958 -0.0833,-0.17358 -0.14396,-0.23343 -0.0556,-0.0659 -0.12122,-0.11372 -0.19698,-0.14365 -0.0758,-0.0359 -0.15412,-0.0539 -0.23487,-0.0539 -0.0808,0 -0.15911,0.018 -0.23487,0.0539 -0.0758,0.0299 -0.14395,0.0778 -0.20456,0.14365 -0.0606,0.0598 -0.10866,0.13767 -0.14395,0.23343 -0.0353,0.0898 -0.053,0.19155 -0.053,0.30526 0,0.11972 0.0178,0.22446 0.053,0.31424 0.0353,0.0898 0.0833,0.16758 0.14395,0.23343 0.0606,0.0659 0.12879,0.11372 0.20456,0.14365 0.0758,0.0359 0.15412,0.0539 0.23487,0.0539 0.16169,0 0.30565,-0.0658 0.43185,-0.19752 z m -4.69738,-5.46773 -0.21972,1.36469 h -0.90916 v 0.91578 h 0.75763 l -0.1591,0.9876 h -0.59853 v 0.91578 h 0.45458 l -0.21971,1.37366 h 0.77279 l 0.21214,-1.37366 h 0.60611 l -0.21972,1.37366 h 0.7728 l 0.21971,-1.37366 h 0.92433 v -0.91578 h -0.78037 l 0.1591,-0.9876 h 0.62127 v -0.91578 h -0.46974 l 0.21972,-1.36469 h -0.7728 l -0.21971,1.36469 h -0.60612 l 0.2273,-1.36469 z m 8.74318,1.47243 c 0,0.21547 -0.005,0.41 -0.0152,0.58358 -0.005,0.16759 -0.0152,0.3322 -0.0303,0.4938 -0.0102,0.15563 -0.0253,0.31124 -0.0454,0.46687 -0.0152,0.15563 -0.0329,0.32919 -0.053,0.52074 h -0.77279 c -0.0253,-0.19155 -0.048,-0.36511 -0.0682,-0.52074 -0.0152,-0.16161 -0.0303,-0.32021 -0.0454,-0.47584 -0.0152,-0.15563 -0.0277,-0.31724 -0.0379,-0.48483 -0.005,-0.17358 -0.008,-0.36811 -0.008,-0.58358 v -1.47243 h 1.07585 z m 0.0909,3.44763 c 0,0.23344 -0.0656,0.416 -0.19699,0.54767 -0.12621,0.13168 -0.27016,0.19752 -0.43186,0.19752 -0.1617,0 -0.30804,-0.0658 -0.43943,-0.19752 -0.12621,-0.13167 -0.18941,-0.31423 -0.18941,-0.54767 0,-0.22745 0.0632,-0.40702 0.18941,-0.53869 0.13139,-0.13167 0.27773,-0.19752 0.43943,-0.19752 0.1617,0 0.30565,0.0658 0.43186,0.19752 0.13139,0.13167 0.19699,0.31124 0.19699,0.53869 z"
     fill="#282828"
     id="path991"
     style="stroke-width:0.217042"
     inkscape:export-filename="/Users/chrisrood/Desktop/quart-wtf/logo.png"
     inkscape:export-xdpi="96"
     inkscape:export-ydpi="96" /></g></svg>
