<?xml version="1.0" encoding="UTF-8" standalone="no"?>
<svg
   xmlns:dc="http://purl.org/dc/elements/1.1/"
   xmlns:cc="http://creativecommons.org/ns#"
   xmlns:rdf="http://www.w3.org/1999/02/22-rdf-syntax-ns#"
   xmlns:svg="http://www.w3.org/2000/svg"
   xmlns="http://www.w3.org/2000/svg"
   xmlns:sodipodi="http://sodipodi.sourceforge.net/DTD/sodipodi-0.dtd"
   xmlns:inkscape="http://www.inkscape.org/namespaces/inkscape"
   version="1.1"
   id="Layer_1"
   x="0px"
   y="0px"
   viewBox="0 0 299.99999 226.77"
   xml:space="preserve"
   sodipodi:docname="quart_wtf_short_logo_color.svg"
   inkscape:version="1.0.1 (c497b03c, 2020-09-10)"
   width="300"
   height="226.77"><metadata
   id="metadata1851"><rdf:RDF><cc:Work
       rdf:about=""><dc:format>image/svg+xml</dc:format><dc:type
         rdf:resource="http://purl.org/dc/dcmitype/StillImage" /><dc:title></dc:title></cc:Work></rdf:RDF></metadata><defs
   id="defs1849" /><sodipodi:namedview
   pagecolor="#ffffff"
   bordercolor="#666666"
   borderopacity="1"
   objecttolerance="10"
   gridtolerance="10"
   guidetolerance="10"
   inkscape:pageopacity="0"
   inkscape:pageshadow="2"
   inkscape:window-width="1920"
   inkscape:window-height="959"
   id="namedview1847"
   showgrid="false"
   inkscape:zoom="2.5787242"
   inkscape:cx="27.075053"
   inkscape:cy="119.71747"
   inkscape:window-x="0"
   inkscape:window-y="25"
   inkscape:window-maximized="1"
   inkscape:current-layer="layer7"
   inkscape:document-rotation="0" />













<g
   inkscape:groupmode="layer"
   id="layer4"
   inkscape:label="Bottle"><path
     style="fill:#b7895b"
     d="M 76.637,66.865 59.58,71.682 c -1.022,0.269 -2.075,-0.316 -2.386,-1.326 L 52.421,53.387 C 52.152,52.365 52.737,51.311 53.747,51 l 17.058,-4.817 c 1.022,-0.269 2.075,0.316 2.386,1.326 l 4.773,16.969 c 0.309,1.017 -0.31,2.077 -1.327,2.387 z"
     id="path1801"
     inkscape:export-filename="/Users/chrisrood/Desktop/quart-wtf/logo_short.png"
     inkscape:export-xdpi="96"
     inkscape:export-ydpi="96" /><path
     style="fill:#c49a6c"
     d="m 55.735,60.545 -1.193,-4.286 c -0.619,-2.165 0.663,-4.375 2.784,-4.994 L 67.932,48.26 c 2.165,-0.619 4.375,0.663 4.994,2.784 l 1.193,4.286 z"
     id="path1803"
     inkscape:export-filename="/Users/chrisrood/Desktop/quart-wtf/logo_short.png"
     inkscape:export-xdpi="96"
     inkscape:export-ydpi="96" /><path
     style="fill:#b7895b"
     d="m 65.413,57.806 c 0,0 5.612,-7.38 1.591,-9.28 l 2.607,-1.37 3.359,2.298 1.723,6.187 c 0,0 -9.28,2.165 -9.28,2.165 z"
     id="path1805"
     inkscape:export-filename="/Users/chrisrood/Desktop/quart-wtf/logo_short.png"
     inkscape:export-xdpi="96"
     inkscape:export-ydpi="96" /><path
     style="fill:#99d5e8"
     d="m 54.72,64.044 22.328,-6.306 13.044,46.188 -22.328,6.306 z"
     id="path1807"
     inkscape:export-filename="/Users/chrisrood/Desktop/quart-wtf/logo_short.png"
     inkscape:export-xdpi="96"
     inkscape:export-ydpi="96" /><circle
     transform="matrix(0.9624,-0.2718,0.2718,0.9624,-31.0844,28.2871)"
     style="fill:#99d5e8"
     cx="86.577003"
     cy="126.361"
     id="ellipse1809"
     inkscape:export-filename="/Users/chrisrood/Desktop/quart-wtf/logo_short.png"
     inkscape:export-xdpi="96"
     inkscape:export-ydpi="96"
     r="43.752998" /><circle
     transform="matrix(0.9624,-0.2718,0.2718,0.9624,-31.0844,28.2871)"
     style="fill:#bce3f4"
     cx="86.577003"
     cy="126.361"
     id="ellipse1811"
     inkscape:export-filename="/Users/chrisrood/Desktop/quart-wtf/logo_short.png"
     inkscape:export-xdpi="96"
     inkscape:export-ydpi="96"
     r="41.499001" /><path
     style="fill:#bce3f4"
     d="m 77.3,62.092 -20.77,5.877 c -1.679,0.486 -3.403,-0.53 -3.889,-2.165 -0.486,-1.679 0.53,-3.403 2.165,-3.889 l 20.77,-5.877 c 1.679,-0.486 3.403,0.53 3.889,2.165 0.487,1.635 -0.485,3.403 -2.165,3.889 z"
     id="path1813"
     inkscape:export-filename="/Users/chrisrood/Desktop/quart-wtf/logo_short.png"
     inkscape:export-xdpi="96"
     inkscape:export-ydpi="96" /><path
     style="opacity:0.35;fill:#ffffff;enable-background:new"
     d="m 76.947,96.605 c 3.977,4.11 -6.408,4.198 -13.08,10.65 -6.672,6.452 -7.159,16.837 -11.136,12.683 -3.977,-4.11 -1.768,-12.683 4.905,-19.135 6.716,-6.452 15.334,-8.352 19.311,-4.198 z"
     id="path1815"
     inkscape:export-filename="/Users/chrisrood/Desktop/quart-wtf/logo_short.png"
     inkscape:export-xdpi="96"
     inkscape:export-ydpi="96" /><path
     style="fill:#bce3f4"
     d="m 57.944,68.905 19.054,-5.38 6.378,22.583 -19.054,5.38 z"
     id="path1817"
     inkscape:export-filename="/Users/chrisrood/Desktop/quart-wtf/logo_short.png"
     inkscape:export-xdpi="96"
     inkscape:export-ydpi="96" /><path
     style="fill:#99d5e8"
     d="m 76.947,63.506 c 0,0 0.928,21.742 -5.612,23.996 0,0 21.919,-3.756 31.154,0.53 0,0 -11.313,-4.596 -15.644,-3.756 -4.374,0.795 -9.898,-20.77 -9.898,-20.77 z"
     id="path1819"
     inkscape:export-filename="/Users/chrisrood/Desktop/quart-wtf/logo_short.png"
     inkscape:export-xdpi="96"
     inkscape:export-ydpi="96" /><g
     id="g1840"
     inkscape:export-filename="/Users/chrisrood/Desktop/quart-wtf/logo_short.png"
     inkscape:export-xdpi="96"
     inkscape:export-ydpi="96">
	
		<linearGradient
   id="SVGID_1_"
   gradientUnits="userSpaceOnUse"
   x1="48.601898"
   y1="97.2229"
   x2="124.5206"
   y2="97.2229"
   gradientTransform="matrix(1,0,0,-1,0,226.72)">
		<stop
   offset="0"
   style="stop-color:#FAEB48"
   id="stop1821" />
		<stop
   offset="0.04"
   style="stop-color:#FEE72F"
   id="stop1823" />
		<stop
   offset="0.117"
   style="stop-color:#FFD51D"
   id="stop1825" />
		<stop
   offset="0.196"
   style="stop-color:#FDCA12"
   id="stop1827" />
		<stop
   offset="0.281"
   style="stop-color:#FDC710"
   id="stop1829" />
		<stop
   offset="0.668"
   style="stop-color:#F39040"
   id="stop1831" />
		<stop
   offset="0.888"
   style="stop-color:#ED683C"
   id="stop1833" />
		<stop
   offset="1"
   style="stop-color:#E83E3B"
   id="stop1835" />
	</linearGradient>
	<path
   style="fill:url(#SVGID_1_)"
   d="m 109.029,95.721 c 7.778,2.43 11.666,11.799 14.053,20.284 5.701,20.195 -6.054,41.142 -26.205,46.842 -20.151,5.7 -41.142,-6.054 -46.842,-26.205 -1.8,-6.358 -1.906,-13.076 -0.309,-19.488 0,0 9.147,14.583 25.056,7.336 15.908,-7.204 12.903,-35.442 34.247,-28.769 z"
   id="path1838" />
</g></g><g
   inkscape:groupmode="layer"
   id="layer5"
   inkscape:label="Q"><path
     d="m 53.596376,126.67982 c 0,-0.805 0.18,-1.567 0.54,-2.287 0.355,-0.705 0.595,-1.463 0.712,-2.244 0,-0.057 0.014,-0.229 0.043,-0.518 0.028,-0.287 0.064,-0.597 0.108,-0.928 0.043,-0.33 0.086,-0.64 0.129,-0.928 0.043,-0.287 0.079,-0.475 0.108,-0.562 0.057,-0.086 0.172,-0.294 0.345,-0.625 l 0.54,-1.036 c 0.286,-0.552 0.596,-1.092 0.928,-1.618 0.032,-0.213 0.083,-0.422 0.151,-0.626 0.043,-0.129 0.079,-0.259 0.108,-0.388 0.02,-0.078 0.034,-0.157 0.043,-0.237 0.883,-1.944 2.078,-3.73 3.539,-5.287 1.459,-1.562 3.047,-2.998 4.747,-4.294 0.057,-0.028 0.194,-0.101 0.41,-0.216 0.216,-0.115 0.438,-0.237 0.669,-0.367 0.23,-0.129 0.446,-0.259 0.647,-0.389 0.201,-0.129 0.316,-0.222 0.345,-0.28 0.201,-0.058 0.46,-0.194 0.777,-0.41 0.316,-0.216 0.503,-0.352 0.561,-0.41 0.074,-0.078 0.146,-0.157 0.216,-0.237 0.115,-0.13 0.237,-0.266 0.367,-0.41 0.129,-0.144 0.266,-0.281 0.41,-0.41 0.144,-0.129 0.244,-0.194 0.302,-0.194 0.028,-0.028 0.136,-0.065 0.324,-0.108 0.187,-0.043 0.403,-0.086 0.647,-0.13 0.244,-0.043 0.467,-0.079 0.669,-0.107 0.201,-0.028 0.345,-0.043 0.432,-0.043 0.028,-0.028 0.114,-0.086 0.259,-0.172 0.144,-0.086 0.309,-0.18 0.496,-0.281 0.187,-0.101 0.367,-0.187 0.54,-0.259 0.173,-0.072 0.287,-0.108 0.345,-0.108 h 0.388 c 0.316,-0.086 0.632,-0.23 0.949,-0.432 0.316,-0.200996 0.64,-0.394996 0.971,-0.582996 0.33,-0.187 0.661,-0.352 0.992,-0.496 0.319,-0.142 0.665,-0.215 1.014,-0.216 h 0.259 c 0.028,0.058 0.151,0.151 0.367,0.28 0.216,0.129 0.367,0.194 0.453,0.194 0.213,-0.115 0.421,-0.237 0.625,-0.367 0.302,-0.187 0.511,-0.338 0.626,-0.453 0.92,-0.144 1.841,-0.259 2.762,-0.345 1.852,-0.174 3.715,-0.174 5.567,0 0.949,0.086 1.913,0.201 2.891,0.345 0.028,0 0.194,0.029 0.497,0.086 0.302,0.058 0.654,0.129 1.057,0.216 l 1.208,0.259 c 0.402,0.086 0.719,0.172 0.949,0.259 0.057,0 0.194,0.058 0.41,0.172 0.216,0.115 0.352,0.173 0.41,0.173 0.028,0.058 0.122,0.172 0.281,0.344996 0.158,0.172 0.33,0.36 0.518,0.561 0.187,0.202 0.367,0.381 0.54,0.54 0.173,0.158 0.302,0.252 0.389,0.28 0.114,0.058 0.309,0.108 0.583,0.151 0.273,0.043 0.575,0.086 0.906,0.13 0.33,0.043 0.661004,0.072 0.992004,0.086 0.331,0.015 0.626,0.022 0.885,0.022 h 0.345 c 0.028,0.086 0.093,0.194 0.194,0.323 0.214,0.273 0.461,0.52 0.734,0.734 0.129,0.101 0.222,0.166 0.28,0.194 0.028,0.029 0.108,0.064 0.237,0.108 0.129,0.043 0.266,0.086 0.41,0.129 0.144,0.043 0.345,0.108 0.604,0.194 0.057,0 0.201,0.13 0.432,0.389 0.23,0.259 0.359,0.403 0.388,0.432 0.288,0.202 0.589,0.367 0.906,0.496 0.316,0.129 0.64,0.252 0.971,0.367 0.331,0.115 0.654,0.231 0.971,0.345 0.316,0.116 0.619,0.274 0.907,0.475 0.057,0 0.187,0.115 0.388,0.345 0.201,0.23 0.374,0.388 0.518,0.475 1.149,1.31 2.258,2.656 3.323,4.035 1.038,1.356 1.989,2.776 2.848,4.251 0.287,0.49 0.597,1.144 0.928,1.963 0.331,0.82 0.64,1.669 0.928,2.546 0.288,0.878 0.525,1.733 0.712,2.567 0.187,0.835 0.309,1.525 0.367,2.071 v 3.28 c 0,0.145 0.057,0.382 0.173,0.712 0.114,0.331 0.201,0.525 0.259,0.583 v 0.216 c 0,0.719 -0.058,1.381 -0.173,1.984 -0.112,0.59 -0.255,1.174 -0.431,1.748 -0.173,0.562 -0.36,1.13 -0.561,1.705 -0.209,0.597 -0.396,1.201 -0.561,1.812 -0.104,0.44 -0.176,0.887 -0.216,1.338 -0.029,0.374 -0.065,0.733 -0.108,1.078 -0.047,0.359 -0.126,0.713 -0.237,1.058 -0.116,0.36 -0.317,0.771 -0.604,1.229 -0.077,0.074 -0.156,0.146 -0.237,0.216 l -0.41,0.367 c -0.145,0.13 -0.281,0.259 -0.41,0.389 l -0.237,0.237 c -0.086,0.11 -0.165,0.225 -0.237,0.345 -0.138,0.218 -0.268,0.441 -0.389,0.669 -0.119,0.229 -0.249,0.452 -0.388,0.669 -0.084,0.126 -0.163,0.256 -0.237,0.389 -0.397,0.626 -0.844,1.217 -1.338,1.77 -0.492,0.55 -1.011,1.075 -1.554,1.575 -0.547,0.504 -1.101,0.992 -1.661,1.467 -0.561,0.475 -1.116,0.957 -1.662,1.446 -0.332,0.248 -0.656,0.507 -0.971,0.776 -0.446,0.374 -0.914,0.763 -1.402,1.165 -0.49,0.403 -0.95,0.777 -1.381,1.122 l -0.863,0.69 c -0.23,0.173 -0.598,0.346 -1.101,0.519 -0.503,0.172 -1.014,0.359 -1.532,0.561 -0.518004,0.201 -0.971004,0.41 -1.359004,0.626 -0.389,0.216 -0.583,0.468 -0.583,0.755 0,0.317 0.057,0.54 0.172,0.669 0.115,0.13 0.345,0.324 0.69,0.583 0.115,0.058 0.259,0.158 0.432,0.302 0.173,0.145 0.345004,0.28 0.518004,0.41 0.172,0.129 0.33,0.252 0.475,0.366 0.144,0.115 0.23,0.188 0.259,0.216 0.332,0.039 0.663,0.089 0.992,0.151 0.23,0.043 0.446,0.086 0.647,0.13 0.201,0.043 0.33,0.064 0.388,0.064 0.086,0.058 0.294,0.165 0.626,0.323 0.33,0.158 0.683,0.338 1.057,0.54 0.374,0.2 0.726,0.381 1.057,0.539 0.331,0.158 0.54,0.237 0.626,0.237 0.782,0.386 1.619,0.648 2.481,0.777 0.82,0.114 1.661,0.287 2.524,0.518 0.057,0 0.194,0.064 0.41,0.194 0.216,0.129 0.352,0.208 0.41,0.237 0.201,0.086 0.497,0.194 0.885,0.323 l 1.165,0.389 c 0.389,0.13 0.741,0.244 1.058,0.345 0.316,0.101 0.518,0.151 0.604,0.151 0.115,0.028 0.395,0.087 0.842,0.173 0.445,0.086 0.928,0.173 1.445,0.259 0.518,0.086 1,0.165 1.446,0.237 0.446,0.071 0.726,0.122 0.842,0.151 0.114,0.028 0.438,0.136 0.971,0.323 0.532,0.187 1.129,0.389 1.791,0.604 l 1.985,0.647 c 0.661,0.216 1.165,0.381 1.51,0.496 0.518,0.201 1.028,0.373 1.532,0.518 1.009,0.289 1.99,0.664 2.934,1.122 0.475,0.23 0.928,0.532 1.359,0.906 0.288,0.058 0.812,0.158 1.575,0.303 1.601,0.304 3.198,0.628 4.791,0.971 0.733,0.157 1.23,0.28 1.489,0.366 0.115,0 0.338,0.065 0.669,0.194 0.33,0.13 0.524,0.223 0.583,0.281 0.978,0.373 1.97,0.653 2.978,0.841 1.007,0.187 2.028,0.338 3.064,0.453 1.036,0.115 2.064,0.216 3.086,0.303 1.021,0.086 2.035,0.216 3.042,0.388 0.058,0.058 0.244,0.151 0.561,0.281 0.316,0.129 0.503,0.193 0.561,0.193 h 1.337 c 0.058,0 0.251,-0.064 0.583,-0.193 l 0.713,-0.281 h 4.1 l 0.432,-0.345 h 6.214 c 0.058,0 0.187,-0.059 0.389,-0.173 0.201,-0.115 0.373,-0.216 0.518,-0.302 0.469,-0.278 0.96,-0.516 1.468,-0.712 0.488,-0.188 0.985,-0.354 1.488,-0.497 0.503,-0.144 1.021,-0.28 1.554,-0.409 0.532,-0.13 1.086,-0.281 1.661,-0.453 0.551,-0.117 1.072,-0.345 1.532,-0.669 0.475,-0.331 0.949,-0.663 1.424,-0.993 0.476,-0.331 0.957,-0.626 1.446,-0.885 0.506,-0.263 1.07,-0.396 1.64,-0.388 0.46,0 0.842,0.078 1.144,0.237 0.302,0.157 0.54,0.366 0.712,0.625 0.173,0.259 0.295,0.562 0.367,0.906 0.071,0.346 0.107,0.705 0.107,1.079 0,0.546 -0.101,1.058 -0.302,1.532 -0.201,0.474 -0.461,0.92 -0.776,1.338 -0.325,0.426 -0.686,0.823 -1.079,1.187 -0.403,0.374 -0.806,0.719 -1.209,1.036 -1.208,0.978 -2.424,1.769 -3.646,2.373 -1.222,0.604 -2.496,1.208 -3.819,1.812 -0.371,0.172 -0.762,0.295 -1.165,0.367 -0.403,0.071 -0.798,0.144 -1.187,0.216 -0.389,0.071 -0.776,0.157 -1.165,0.259 -0.38,0.098 -0.749,0.235 -1.101,0.41 -0.176,0.107 -0.356,0.208 -0.539,0.302 -0.274,0.144 -0.568,0.302 -0.885,0.475 l -0.906,0.496 c -0.288,0.158 -0.49,0.281 -0.604,0.367 -2.12,0.055 -4.237,0.206 -6.344,0.453 -2.106,0.246 -4.224,0.369 -6.344,0.367 h -3.582 c -0.662,-0.288 -1.31,-0.447 -1.942,-0.476 -0.633,-0.028 -1.353,-0.144 -2.158,-0.345 -0.058,0 -0.188,-0.072 -0.389,-0.216 -0.202,-0.145 -0.317,-0.216 -0.345,-0.216 h -2.632 c -0.382,-0.082 -0.764,-0.169 -1.144,-0.259 -0.619,-0.145 -1.295,-0.302 -2.028,-0.475 -0.734,-0.173 -1.46,-0.346 -2.179,-0.519 -0.72,-0.172 -1.267,-0.302 -1.64,-0.388 -0.058,0 -0.209,-0.065 -0.453,-0.194 -0.245,-0.13 -0.396,-0.224 -0.453,-0.28 h -0.388 c -0.231,0 -0.49,0.014 -0.777,0.043 -0.316,0.03 -0.633,0.044 -0.95,0.043 -0.317,0 -0.655,-0.029 -1.014,-0.086 -0.343,-0.052 -0.672,-0.17 -0.971,-0.346 -0.058,-0.029 -0.145,-0.107 -0.259,-0.237 -0.115,-0.129 -0.237,-0.267 -0.367,-0.41 -0.13,-0.143 -0.259,-0.28 -0.388,-0.41 -0.129,-0.129 -0.223,-0.209 -0.281,-0.237 h -1.64 c -0.058,0 -0.223,-0.036 -0.497,-0.107 -0.304,-0.08 -0.606,-0.167 -0.906,-0.259 -0.331,-0.102 -0.64,-0.194 -0.928,-0.28 -0.187,-0.056 -0.375,-0.114 -0.561,-0.173 -0.058,0 -0.209,-0.021 -0.453,-0.064 -0.245,-0.044 -0.511,-0.087 -0.798,-0.13 -0.287,-0.043 -0.554,-0.086 -0.798,-0.13 -0.167,-0.026 -0.333,-0.062 -0.496,-0.107 -0.058,0 -0.194,-0.123 -0.41,-0.367 -0.216,-0.244 -0.353,-0.396 -0.41,-0.453 -0.199,-0.057 -0.401,-0.107 -0.604,-0.15 -0.347,-0.08 -0.692,-0.166 -1.036,-0.26 -0.343,-0.094 -0.689,-0.18 -1.036,-0.259 -0.203,-0.043 -0.404,-0.093 -0.604,-0.15 -0.15,-0.074 -0.301,-0.146 -0.453,-0.216 -0.268,-0.126 -0.534,-0.256 -0.799,-0.389 -0.265,-0.133 -0.531,-0.262 -0.798,-0.389 -0.162,-0.08 -0.327,-0.152 -0.496,-0.216 -0.029,-0.028 -0.123,-0.064 -0.28,-0.107 -0.172,-0.047 -0.345,-0.09 -0.518,-0.13 -0.18,-0.041 -0.36,-0.084 -0.54,-0.129 -0.099,-0.029 -0.2,-0.051 -0.302,-0.065 -0.228,-0.087 -0.458,-0.166 -0.691,-0.237 -0.317,-0.101 -0.518,-0.18 -0.604,-0.237 -0.058,0 -0.245,-0.086 -0.561,-0.259 -0.342,-0.186 -0.687,-0.366 -1.036,-0.539 -0.354,-0.177 -0.706,-0.357 -1.057,-0.54 -0.203,-0.112 -0.412,-0.212 -0.626,-0.302 h -2.546 c -0.058,0 -0.188,-0.079 -0.389,-0.237 -0.22,-0.174 -0.436,-0.354 -0.647,-0.539 -0.23,-0.202 -0.439,-0.382 -0.625,-0.54 -0.188,-0.158 -0.295,-0.267 -0.324,-0.323 -0.429,-0.307 -0.94,-0.479 -1.467,-0.496 -0.505,-0.013 -1.003,-0.123 -1.467,-0.324 -0.801,-0.355 -1.561004,-0.796 -2.266004,-1.316 -0.718,-0.525 -1.511,-0.94 -2.352,-1.229 -0.058,0 -0.202,-0.021 -0.432,-0.064 -0.508,-0.096 -1.019,-0.175 -1.532,-0.237 -0.165,-0.023 -0.331,-0.037 -0.497,-0.044 -0.234,-0.088 -0.472,-0.167 -0.712,-0.237 -0.331,-0.101 -0.511,-0.18 -0.54,-0.237 -0.029,0 -0.08,-0.064 -0.151,-0.194 -0.077,-0.138 -0.156,-0.274 -0.237,-0.409 -0.083,-0.139 -0.169,-0.276 -0.259,-0.41 -0.052,-0.083 -0.11,-0.162 -0.173,-0.237 h -1.294 c -0.058,0 -0.194,-0.065 -0.41,-0.194 -0.216,-0.13 -0.353,-0.194 -0.41,-0.194 -0.175,-0.082 -0.355,-0.155 -0.539,-0.216 -0.258,-0.091 -0.517,-0.177 -0.777,-0.259 -0.245,-0.077 -0.49,-0.156 -0.734,-0.237 -0.216,-0.072 -0.353,-0.108 -0.41,-0.108 h -0.82 c -0.058,0 -0.172,-0.064 -0.345,-0.193 -0.172,-0.13 -0.353,-0.267 -0.539,-0.41 -0.171,-0.13 -0.337,-0.267 -0.497,-0.41 -0.144,-0.13 -0.23,-0.209 -0.259,-0.237 -0.115,-0.059 -0.345,-0.137 -0.69,-0.237 -0.345,-0.102 -0.547,-0.151 -0.604,-0.151 -0.164,-0.066 -0.323,-0.146 -0.475,-0.237 -0.23,-0.129 -0.475,-0.259 -0.733,-0.389 -0.253,-0.126 -0.505,-0.256 -0.755,-0.388 -0.245,-0.13 -0.425,-0.209 -0.54,-0.237 -0.091,-0.051 -0.177,-0.109 -0.259,-0.173 l -0.367,-0.28 c -0.117,-0.093 -0.24,-0.18 -0.367,-0.26 -0.115,-0.071 -0.188,-0.107 -0.216,-0.107 -0.105,-0.045 -0.213,-0.08 -0.324,-0.107 -0.172,-0.047 -0.344,-0.09 -0.518,-0.13 -0.298,-0.067 -0.593,-0.146 -0.885,-0.237 -0.086,0 -0.273,-0.015 -0.561,-0.043 -0.613,-0.062 -1.225,-0.141 -1.834,-0.237 -0.164,-0.03 -0.33,-0.052 -0.496,-0.065 -0.419,-0.189 -0.836,-0.383 -1.251,-0.582 -0.602,-0.286 -1.199,-0.581 -1.791,-0.885 -0.619,-0.316 -1.187,-0.611 -1.705,-0.885 -0.518,-0.274 -0.849,-0.468 -0.993,-0.583 -0.115,-0.086 -0.345,-0.294 -0.69,-0.625 -0.345,-0.331 -0.698,-0.69 -1.057,-1.079 -0.335,-0.362 -0.673,-0.722 -1.014,-1.079 -0.317,-0.33 -0.518,-0.524 -0.604,-0.582 -0.058,0 -0.144,-0.044 -0.259,-0.13 -0.125,-0.093 -0.254,-0.179 -0.388,-0.259 -0.139,-0.083 -0.275,-0.169 -0.41,-0.259 -0.09,-0.063 -0.184,-0.12 -0.28,-0.173 -0.378,-0.297 -0.752,-0.599 -1.122,-0.906 -0.49,-0.402 -0.986,-0.806 -1.489,-1.208 -0.443,-0.354 -0.882,-0.714 -1.316,-1.079 -0.375,-0.316 -0.59,-0.489 -0.647,-0.519 -0.073,-0.095 -0.138,-0.196 -0.194,-0.302 -0.114,-0.195 -0.229,-0.389 -0.345,-0.582 -0.129,-0.216 -0.259,-0.438 -0.388,-0.669 -0.129,-0.231 -0.237,-0.417 -0.324,-0.562 -0.137,-0.312 -0.281,-0.622 -0.432,-0.928 l -0.625,-1.295 c -0.216,-0.445 -0.41,-0.848 -0.583,-1.208 -0.173,-0.359 -0.274,-0.597 -0.302,-0.712 -0.202,-0.417 -0.389,-0.842 -0.561,-1.273 -0.23,-0.561 -0.46,-1.129 -0.69,-1.704 -0.23,-0.575 -0.439,-1.094 -0.626,-1.554 -0.188,-0.46 -0.295,-0.748 -0.324,-0.863 v -2.891 c 0,-0.086 -0.072,-0.237 -0.215,-0.453 -0.145,-0.216 -0.216,-0.338 -0.216,-0.366 l -0.151,-1.058 -0.237,-1.64 c -0.086,-0.59 -0.172,-1.15 -0.259,-1.684 -0.067,-0.394 -0.125,-0.79 -0.173,-1.187 v -0.819 z m 9.106,1.511 v 0.302 c 0.086,0.059 0.179,0.245 0.28,0.562 0.101,0.316 0.151,0.504 0.151,0.561 0.402,1.554 0.726,3.115 0.971,4.683 0.241,1.558 0.654,3.085 1.23,4.553 0.804,2.093 1.756,4.127 2.848,6.085 1.106,1.96 2.377,3.822 3.798,5.567 0.028,0.058 0.093,0.137 0.194,0.237 0.1,0.101 0.179,0.15 0.237,0.15 0.057,0.059 0.251,0.138 0.583,0.237 0.331,0.102 0.54,0.166 0.625,0.194 0.086,0.059 0.288,0.23 0.604,0.519 0.316,0.287 0.661,0.597 1.036,0.928 0.374,0.331 0.733,0.641 1.079,0.928 0.346,0.288 0.561,0.475 0.647,0.561 0.028,0.029 0.136,0.059 0.324,0.087 0.187,0.028 0.402,0.064 0.647,0.107 0.244,0.043 0.467,0.08 0.669,0.108 0.201,0.028 0.345,0.043 0.431,0.043 0.028,0.028 0.158,0.107 0.389,0.237 0.23,0.129 0.489,0.267 0.777,0.41 0.287,0.144 0.554,0.28 0.798,0.409 0.244,0.13 0.41,0.21 0.496,0.238 0.086,0.028 0.316,0.064 0.69,0.107 0.374,0.043 0.77,0.086 1.187,0.13 0.417,0.043 0.812,0.086 1.187,0.129 0.374,0.043 0.604,0.064 0.69,0.064 0.028,0 0.122,0.022 0.281,0.065 0.158,0.043 0.324,0.086 0.496,0.129 l 0.518,0.13 c 0.172,0.043 0.287,0.064 0.345,0.064 0.23,0.029 0.417,0.043 0.561,0.043 0.144,0 0.287,0.008 0.432,0.021 0.144,0.016 0.259,0.022 0.345,0.022 0.172,0 0.402,-0.015 0.69,-0.044 0.287,-0.028 0.446,-0.043 0.475,-0.043 0.028,0 0.101,-0.035 0.216,-0.107 0.115,-0.072 0.237,-0.158 0.367,-0.259 0.13,-0.101 0.259,-0.194 0.389,-0.281 0.129,-0.086 0.208,-0.144 0.237,-0.172 0.402,-0.145 0.891,-0.238 1.467,-0.281 0.575,-0.043 1.064,-0.223 1.467,-0.539 0.057,-0.058 0.179,-0.194 0.367,-0.41 0.187,-0.216 0.395,-0.438 0.625,-0.669 l 0.647,-0.647 c 0.201,-0.201 0.345,-0.33 0.432,-0.388 0.057,0 0.208,-0.022 0.453,-0.065 0.244,-0.043 0.51,-0.086 0.798,-0.129 0.287,-0.044 0.554,-0.087 0.798,-0.13 0.168,-0.026 0.334,-0.062 0.497,-0.107 l 0.28,-0.281 c 0.158,-0.157 0.331,-0.338 0.518,-0.539 0.187,-0.201 0.359,-0.381 0.518,-0.539 0.158,-0.158 0.266,-0.252 0.324,-0.281 0.115,-0.086 0.280004,-0.222 0.496004,-0.409 0.216,-0.187 0.432,-0.367 0.647,-0.54 0.215,-0.173 0.417,-0.323 0.604,-0.453 0.187,-0.129 0.295,-0.208 0.324,-0.237 0.028,-0.028 0.122,-0.071 0.281,-0.129 0.158,-0.058 0.33,-0.108 0.518,-0.151 0.187,-0.043 0.367,-0.079 0.54,-0.108 0.173,-0.028 0.273,-0.043 0.302,-0.043 0.086,-0.028 0.194,-0.107 0.324,-0.237 l 0.388,-0.389 c 0.129,-0.129 0.244,-0.251 0.345,-0.366 0.066,-0.085 0.147,-0.158 0.237,-0.216 0.028,-0.058 0.058,-0.173 0.086,-0.346 0.028,-0.172 0.065,-0.352 0.108,-0.539 0.043,-0.187 0.079,-0.359 0.108,-0.518 0.028,-0.158 0.043,-0.266 0.043,-0.324 0.058,-0.144 0.136,-0.366 0.237,-0.669 0.101,-0.302 0.18,-0.481 0.238,-0.539 0.136,-0.233 0.287,-0.457 0.453,-0.669 0.1,-0.13 0.187,-0.252 0.259,-0.367 0.071,-0.114 0.108,-0.187 0.108,-0.216 0.028,-0.086 0.064,-0.302 0.108,-0.646 0.043,-0.346 0.086,-0.705 0.129,-1.079 0.043,-0.374 0.086,-0.734 0.129,-1.079 0.043,-0.346 0.065,-0.562 0.065,-0.647 0,-0.028 0.043,-0.136 0.129,-0.323 0.086,-0.188 0.179,-0.396 0.28,-0.626 0.101,-0.23 0.194,-0.438 0.281,-0.626 0.086,-0.187 0.129,-0.309 0.129,-0.366 0.028,-0.087 0.064,-0.23 0.108,-0.432 0.09,-0.422 0.169,-0.847 0.237,-1.273 0.028,-0.187 0.043,-0.309 0.043,-0.367 v -5.092 c 0.058,-0.777 0.223,-1.597 0.497,-2.46 0.273,-0.863 0.41,-1.711 0.41,-2.546 -0.029,0 -0.043,-0.015 -0.043,-0.043 v -0.087 c -0.029,-0.028 -0.043,-0.071 -0.043,-0.129 0,-0.144 -0.123,-0.389 -0.367,-0.734 -0.153,-0.214 -0.304,-0.43 -0.453,-0.647 -0.058,-0.199 -0.109,-0.401 -0.151,-0.604 -0.08,-0.347 -0.166,-0.692 -0.259,-1.036 -0.102,-0.373 -0.188,-0.726 -0.259,-1.057 -0.071,-0.331 -0.123,-0.54 -0.151,-0.626 -0.029,-0.028 -0.08,-0.122 -0.151,-0.28 -0.081,-0.176 -0.167,-0.349 -0.259,-0.519 -0.096,-0.175 -0.182,-0.355 -0.259,-0.539 -0.048,-0.116 -0.098,-0.232 -0.151,-0.346 -0.029,-0.057 -0.058,-0.223 -0.086,-0.496 -0.033,-0.302 -0.069,-0.604 -0.108,-0.906 -0.043,-0.33 -0.094,-0.639 -0.151,-0.927 -0.035,-0.189 -0.078,-0.376 -0.129,-0.561 0,-0.057 -0.102,-0.201 -0.302,-0.432 -0.202,-0.23 -0.425,-0.481 -0.669,-0.755 -0.229,-0.254 -0.452,-0.513 -0.669,-0.777 -0.202,-0.244 -0.317,-0.41 -0.345,-0.497 -0.326,-0.509 -0.58,-1.061 -0.755,-1.64 -0.189,-0.609 -0.369,-1.22 -0.539,-1.834 -0.165,-0.595 -0.367,-1.178 -0.604,-1.748 -0.232,-0.548 -0.586,-1.035 -1.036,-1.424 -0.029,-0.028 -0.129,-0.072 -0.302,-0.13 -0.177,-0.058 -0.357,-0.109 -0.539,-0.151 -0.179,-0.041 -0.359004,-0.077 -0.540004,-0.108 -0.1,-0.018 -0.201,-0.033 -0.302,-0.043 l -0.216,-0.216 c -0.115,-0.115 -0.245,-0.244 -0.388,-0.389 -0.134,-0.132 -0.264,-0.269 -0.389,-0.41 -0.082,-0.085 -0.154,-0.179 -0.215,-0.281 -0.107,-0.051 -0.215,-0.102 -0.324,-0.151 -0.182,-0.082 -0.362,-0.169 -0.54,-0.259 -0.184,-0.093 -0.371,-0.179 -0.561,-0.259 -0.173,-0.071 -0.274,-0.122 -0.302,-0.151 -0.115,-0.069 -0.223,-0.148 -0.324,-0.237 -0.338,-0.276 -0.683,-0.542 -1.036,-0.798 -0.158,-0.115 -0.252,-0.173 -0.28,-0.173 -1.016,-0.324 -2.066,-0.526 -3.129,-0.604 -1.053,-0.075 -2.091,-0.292 -3.085,-0.647 -0.576,-0.201 -1.036,-0.323 -1.381,-0.367 -0.372,-0.044 -0.747,-0.066 -1.122,-0.064 h -2.503 c -0.116,0 -0.332,0.072 -0.647,0.215 -0.317,0.145 -0.518,0.216 -0.604,0.216 h -2.071 c -0.115,0.029 -0.381,0.145 -0.798,0.345 -0.417,0.202 -0.856,0.425 -1.316,0.669 l -1.294,0.69 c -0.403,0.216 -0.647,0.339 -0.733,0.367 -0.921,0.431 -1.777,0.892 -2.568,1.381 -0.778,0.479 -1.521,1.013 -2.223,1.597 -0.699,0.585 -1.369,1.204 -2.007,1.855 -0.679,0.699 -1.32,1.433 -1.92,2.201 -0.374,0.46 -0.576,0.949 -0.604,1.467 -0.026,0.495 -0.098,0.986 -0.216,1.467 l -0.237,0.475 c -0.129,0.259 -0.266,0.525 -0.41,0.798 -0.144,0.274 -0.28,0.533 -0.41,0.777 -0.129,0.245 -0.194,0.396 -0.194,0.453 -0.058,0.115 -0.129,0.396 -0.216,0.841 -0.092,0.481 -0.178,0.963 -0.259,1.446 -0.086,0.518 -0.166,1 -0.237,1.445 -0.072,0.446 -0.108,0.727 -0.108,0.842 -0.317,1.18 -0.612,2.309 -0.885,3.388 -0.278,1.095 -0.588,2.181 -0.928,3.258 z"
     id="path1842"
     inkscape:export-filename="/Users/chrisrood/Desktop/quart-wtf/logo_short.png"
     inkscape:export-xdpi="96"
     inkscape:export-ydpi="96" /></g><g
   inkscape:groupmode="layer"
   id="layer6"
   inkscape:label="WTF"><text
     xml:space="preserve"
     style="font-size:29.8515px;line-height:1.25;font-family:'IM FELL English';-inkscape-font-specification:'IM FELL English';stroke-width:0.746288"
     x="175.48622"
     y="106.82108"
     id="text2440"
     transform="scale(0.74628785,1.3399655)"
     inkscape:export-filename="/Users/chrisrood/Desktop/quart-wtf/logo_short.png"
     inkscape:export-xdpi="96"
     inkscape:export-ydpi="96"><tspan
       sodipodi:role="line"
       id="tspan2438"
       x="175.48622"
       y="106.82108"
       style="font-size:41.0458px;stroke-width:0.746288">t WTF</tspan></text></g><g
   inkscape:groupmode="layer"
   id="layer7"
   inkscape:label="Icon"><path
     d="m 91.383979,133.15383 h -0.61053 v 6.24485 h 0.61053 z"
     fill="#282828"
     id="path973"
     style="stroke-width:0.156986"
     inkscape:export-filename="/Users/chrisrood/Desktop/quart-wtf/logo_short.png"
     inkscape:export-xdpi="96"
     inkscape:export-ydpi="96" /><path
     d="m 73.738119,136.03507 c -0.0263,-0.13491 -0.046,-0.24816 -0.0591,-0.3397 h -0.44312 c -0.0164,0.0867 -0.0394,0.20479 -0.0689,0.35416 -0.0295,0.14937 -0.0624,0.31321 -0.0985,0.49149 -0.0328,0.17828 -0.0689,0.35898 -0.10832,0.54209 -0.0361,0.18311 -0.0689,0.35175 -0.0985,0.50595 0,-0.25056 0.002,-0.51799 0.005,-0.80229 0.003,-0.28911 0.007,-0.58304 0.01,-0.8818 l 0.01,-0.9107 c 0.003,-0.30357 0.007,-0.5975 0.01,-0.8818 h -0.56129 c 0.007,0.36139 0.0148,0.73724 0.0246,1.12754 0.01,0.38549 0.0213,0.77097 0.0345,1.15646 0.0164,0.38066 0.0345,0.75892 0.0542,1.13477 0.0197,0.37103 0.0427,0.72278 0.0689,1.05526 h 0.5022 c 0.0657,-0.30357 0.13786,-0.63364 0.21664,-0.99021 0.0788,-0.35658 0.15428,-0.68665 0.22648,-0.99022 0.0722,0.31803 0.14443,0.65292 0.21664,1.00467 0.0722,0.34694 0.14443,0.67219 0.21664,0.97576 h 0.50221 c 0.023,-0.33248 0.0427,-0.68423 0.0591,-1.05526 0.0197,-0.37104 0.0361,-0.74689 0.0492,-1.12755 0.0131,-0.38549 0.0246,-0.77096 0.0345,-1.15645 0.01,-0.3903 0.0197,-0.76856 0.0295,-1.13477 h -0.56128 c 0,0.2843 0.002,0.58064 0.005,0.88902 0.003,0.30357 0.007,0.60473 0.01,0.90348 0.003,0.29876 0.007,0.59269 0.01,0.8818 0.003,0.2843 0.005,0.55173 0.005,0.80229 -0.0361,-0.19757 -0.0738,-0.3903 -0.11324,-0.57823 -0.0361,-0.18792 -0.0706,-0.36381 -0.1034,-0.52763 -0.0295,-0.16382 -0.0574,-0.31321 -0.0837,-0.44813 z"
     fill="#282828"
     id="path975"
     style="stroke-width:0.156986"
     inkscape:export-filename="/Users/chrisrood/Desktop/quart-wtf/logo_short.png"
     inkscape:export-xdpi="96"
     inkscape:export-ydpi="96" /><path
     d="m 77.022149,134.84971 v -0.73724 h -2.21561 v 0.73724 h 0.80255 v 3.73679 h 0.61052 v -3.73679 z"
     fill="#282828"
     id="path977"
     style="stroke-width:0.156986"
     inkscape:export-filename="/Users/chrisrood/Desktop/quart-wtf/logo_short.png"
     inkscape:export-xdpi="96"
     inkscape:export-ydpi="96" /><path
     d="m 77.455429,138.5865 v -4.47403 h 1.86603 v 0.73724 h -1.26043 v 1.08417 h 1.10288 v 0.73724 h -1.10288 v 1.91538 z"
     fill="#282828"
     id="path979"
     style="stroke-width:0.156986"
     inkscape:export-filename="/Users/chrisrood/Desktop/quart-wtf/logo_short.png"
     inkscape:export-xdpi="96"
     inkscape:export-ydpi="96" /><path
     fill-rule="evenodd"
     clip-rule="evenodd"
     d="m 81.852179,137.61797 c 0.0525,-0.22165 0.0788,-0.46739 0.0788,-0.73724 0,-0.26501 -0.0263,-0.50595 -0.0788,-0.72278 -0.0525,-0.22165 -0.12801,-0.40957 -0.22648,-0.56377 -0.0952,-0.15902 -0.21007,-0.27947 -0.34465,-0.36139 -0.13129,-0.0867 -0.27737,-0.13011 -0.4382,-0.13011 -0.15756,0 -0.30362,0.0434 -0.4382,0.13011 -0.13458,0.0819 -0.2511,0.20237 -0.34957,0.36139 -0.0952,0.1542 -0.17068,0.34212 -0.22649,0.56377 -0.0525,0.21683 -0.0788,0.45777 -0.0788,0.72278 0,0.26985 0.0263,0.51559 0.0788,0.73724 0.0525,0.21683 0.12637,0.40476 0.22156,0.56377 0.0985,0.15901 0.21336,0.28189 0.34465,0.36862 0.13458,0.0867 0.28393,0.1301 0.44805,0.1301 0.16412,0 0.31183,-0.0434 0.44312,-0.1301 0.13458,-0.0867 0.24946,-0.20961 0.34465,-0.36862 0.0952,-0.15901 0.16905,-0.34694 0.22156,-0.56377 z m -1.3786,0.007 c -0.0722,-0.18792 -0.10832,-0.43367 -0.10832,-0.73724 0,-0.30357 0.0394,-0.5469 0.11817,-0.73001 0.0821,-0.18792 0.20186,-0.28188 0.35942,-0.28188 0.16412,0 0.28229,0.094 0.3545,0.28188 0.0755,0.18311 0.11324,0.42644 0.11324,0.73001 0,0.30357 -0.0411,0.54932 -0.12309,0.73724 -0.0788,0.18792 -0.19694,0.28189 -0.3545,0.28189 -0.16412,0 -0.28392,-0.094 -0.35942,-0.28189 z"
     fill="#282828"
     id="path981"
     style="stroke-width:0.156986"
     inkscape:export-filename="/Users/chrisrood/Desktop/quart-wtf/logo_short.png"
     inkscape:export-xdpi="96"
     inkscape:export-ydpi="96" /><path
     d="m 84.220419,136.0929 c -0.0394,-0.0144 -0.0869,-0.0289 -0.14278,-0.0434 -0.0525,-0.0145 -0.10663,-0.0265 -0.16248,-0.0361 -0.0558,-0.0145 -0.11,-0.0241 -0.16248,-0.0289 -0.0525,-0.005 -0.0968,-0.007 -0.13293,-0.007 -0.0854,0 -0.16909,0.007 -0.2511,0.0217 -0.082,0.01 -0.16572,0.0313 -0.25111,0.065 v 2.52251 h -0.61052 v -3.17302 c 0.16079,-0.0867 0.32495,-0.15659 0.49236,-0.20961 0.17064,-0.053 0.36927,-0.0795 0.59575,-0.0795 0.0328,0 0.0788,0.002 0.13786,0.007 0.0623,0.005 0.12801,0.0145 0.19694,0.0289 0.0689,0.01 0.13787,0.0241 0.2068,0.0434 0.0722,0.0145 0.13617,0.0361 0.19201,0.0651 z"
     fill="#282828"
     id="path983"
     style="stroke-width:0.156986"
     inkscape:export-filename="/Users/chrisrood/Desktop/quart-wtf/logo_short.png"
     inkscape:export-xdpi="96"
     inkscape:export-ydpi="96" /><path
     d="m 86.534509,135.24001 c -0.082,-0.0578 -0.1871,-0.0867 -0.31511,-0.0867 -0.082,0 -0.16079,0.0217 -0.23633,0.0651 -0.0755,0.0385 -0.1411,0.0843 -0.19695,0.13733 -0.0492,-0.0723 -0.10831,-0.12287 -0.17725,-0.15178 -0.0657,-0.0337 -0.14109,-0.0506 -0.22648,-0.0506 -0.0952,0 -0.20511,0.0145 -0.32988,0.0434 -0.12477,0.0289 -0.2511,0.0699 -0.37912,0.12287 v 3.26698 h 0.49236 v -2.66707 c 0.0263,-0.01 0.0525,-0.0169 0.0788,-0.0217 0.0295,-0.005 0.0542,-0.007 0.0739,-0.007 0.0689,0 0.11817,0.0458 0.14771,0.13733 0.0328,0.0915 0.0492,0.25297 0.0492,0.48426 v 0.78061 h 0.49235 v -0.67942 c 0,-0.13491 -0.003,-0.25778 -0.01,-0.36861 -0.007,-0.11084 -0.0147,-0.21203 -0.0246,-0.30357 0.0263,-0.0193 0.0558,-0.0313 0.0886,-0.0361 0.0328,-0.01 0.064,-0.0145 0.0935,-0.0145 0.0263,0 0.0509,0.007 0.0738,0.0217 0.0263,0.0145 0.0476,0.0434 0.064,0.0867 0.0197,0.0434 0.0345,0.106 0.0443,0.18792 0.0131,0.0819 0.0197,0.19034 0.0197,0.32525 v 2.07436 h 0.49236 v -2.03102 c 0,-0.2361 -0.008,-0.44089 -0.0246,-0.61436 -0.0165,-0.17828 -0.0492,-0.32525 -0.0985,-0.4409 -0.046,-0.11564 -0.11001,-0.20238 -0.19202,-0.2602 z"
     fill="#282828"
     id="path985"
     style="stroke-width:0.156986"
     inkscape:export-filename="/Users/chrisrood/Desktop/quart-wtf/logo_short.png"
     inkscape:export-xdpi="96"
     inkscape:export-ydpi="96" /><path
     d="m 88.114979,137.91431 c 0.1477,0 0.26095,-0.0145 0.33972,-0.0434 0.0788,-0.0337 0.11817,-0.0988 0.11817,-0.19515 0,-0.0626 -0.0131,-0.11565 -0.0394,-0.15901 -0.0229,-0.0434 -0.0574,-0.0795 -0.10339,-0.10842 -0.0426,-0.0337 -0.0935,-0.065 -0.15263,-0.094 -0.0558,-0.0289 -0.11493,-0.0578 -0.17725,-0.0867 -0.0886,-0.0385 -0.17893,-0.0819 -0.2708,-0.1301 -0.0919,-0.053 -0.17556,-0.11806 -0.2511,-0.19515 -0.0755,-0.0771 -0.13786,-0.17347 -0.1871,-0.28912 -0.0492,-0.12045 -0.0738,-0.26984 -0.0738,-0.44812 0,-0.14456 0.018,-0.27947 0.0542,-0.40476 0.0394,-0.1301 0.0985,-0.24333 0.17725,-0.33971 0.082,-0.10119 0.18541,-0.17828 0.31018,-0.23129 0.12478,-0.0578 0.27404,-0.0867 0.44805,-0.0867 0.15095,0 0.29049,0.0169 0.4185,0.0506 0.13126,0.0337 0.2445,0.0819 0.33973,0.14456 l -0.0935,0.75169 c -0.0558,-0.0241 -0.14278,-0.0626 -0.26095,-0.11564 -0.11816,-0.0578 -0.2511,-0.0867 -0.39881,-0.0867 -0.15431,0 -0.25926,0.0289 -0.31511,0.0867 -0.0525,0.053 -0.0788,0.11083 -0.0788,0.17346 0,0.053 0.0115,0.10119 0.0345,0.14456 0.0263,0.0386 0.0591,0.0747 0.0985,0.10842 0.0426,0.0337 0.0903,0.0675 0.14278,0.10119 0.0559,0.0289 0.11493,0.0578 0.17725,0.0867 0.0886,0.0434 0.18049,0.0916 0.27572,0.14456 0.0952,0.053 0.18049,0.12045 0.25603,0.20237 0.0788,0.0771 0.14278,0.17828 0.19202,0.30357 0.0492,0.12046 0.0738,0.26985 0.0738,0.44813 0,0.13974 -0.018,0.27224 -0.0542,0.39753 -0.0362,0.12529 -0.0968,0.23371 -0.18217,0.32525 -0.082,0.0915 -0.19034,0.16383 -0.32496,0.21684 -0.13462,0.053 -0.30034,0.0795 -0.49728,0.0795 -0.20018,0 -0.37095,-0.0337 -0.51205,-0.10119 -0.1411,-0.0675 -0.25435,-0.12769 -0.33973,-0.1807 l 0.0935,-0.74447 c 0.11492,0.0675 0.23633,0.13011 0.36434,0.18793 0.13126,0.0578 0.26419,0.0867 0.39881,0.0867 z"
     fill="#282828"
     id="path987"
     style="stroke-width:0.156986"
     inkscape:export-filename="/Users/chrisrood/Desktop/quart-wtf/logo_short.png"
     inkscape:export-xdpi="96"
     inkscape:export-ydpi="96" /><path
     d="m 97.923009,135.94834 -0.0985,0.79506 h -0.39389 l 0.1034,-0.79506 z"
     fill="#282828"
     id="path989"
     style="stroke-width:0.156986"
     inkscape:export-filename="/Users/chrisrood/Desktop/quart-wtf/logo_short.png"
     inkscape:export-xdpi="96"
     inkscape:export-ydpi="96" /><path
     fill-rule="evenodd"
     clip-rule="evenodd"
     d="m 71.444249,129.64681 c -1.00182,0 -1.81395,1.19222 -1.81395,2.66289 v 7.60824 c 0,1.47067 0.81214,2.66289 1.81395,2.66289 h 32.391981 c 1.00182,0 1.81395,-1.19222 1.81395,-2.66289 v -7.60824 c 0,-1.47067 -0.81213,-2.66289 -1.81395,-2.66289 z m -0.77741,2.66289 c 0,-0.63029 0.34806,-1.14124 0.77741,-1.14124 h 22.15611 v 9.89072 h -22.15611 c -0.42935,0 -0.77741,-0.51095 -0.77741,-1.14124 z m 29.0582,4.54212 c 0,0.0482 0.002,0.0843 0.005,0.10842 h 0.551441 c 0,-0.10119 0.018,-0.19757 0.0542,-0.28912 0.0394,-0.0916 0.0869,-0.18069 0.14279,-0.26743 0.0591,-0.0867 0.1214,-0.17346 0.1871,-0.2602 0.0657,-0.0916 0.12632,-0.18792 0.18217,-0.28911 0.0591,-0.10119 0.10663,-0.20961 0.14278,-0.32525 0.0394,-0.11565 0.0591,-0.24333 0.0591,-0.38308 0,-0.12046 -0.0148,-0.24574 -0.0443,-0.37585 -0.0263,-0.13491 -0.0739,-0.25778 -0.14278,-0.36861 -0.0689,-0.11084 -0.16416,-0.20238 -0.28557,-0.27466 -0.1214,-0.0771 -0.27572,-0.11565 -0.46282,-0.11565 -0.150951,0 -0.303581,0.0289 -0.457891,0.0867 -0.15432,0.0578 -0.28881,0.13975 -0.40374,0.24575 l 0.16741,0.67941 c 0.11493,-0.0819 0.22156,-0.14455 0.32003,-0.18792 0.0985,-0.0482 0.20018,-0.0723 0.305261,-0.0723 0.10508,0 0.19202,0.0386 0.26095,0.11565 0.0689,0.0723 0.10339,0.18069 0.10339,0.32525 0,0.12046 -0.0328,0.2337 -0.0985,0.33971 -0.0657,0.10119 -0.13618,0.19756 -0.21172,0.28911 -0.111561,0.13491 -0.201871,0.29153 -0.270801,0.46981 -0.0689,0.17347 -0.10339,0.35658 -0.10339,0.54931 z m 0.600681,1.6624 c 0.0854,-0.106 0.12801,-0.25297 0.12801,-0.4409 0,-0.0915 -0.0115,-0.17347 -0.0345,-0.24574 -0.023,-0.0771 -0.0542,-0.13975 -0.0935,-0.18793 -0.0362,-0.053 -0.0788,-0.0915 -0.12801,-0.11564 -0.0492,-0.0289 -0.10015,-0.0434 -0.15263,-0.0434 -0.0525,0 -0.103401,0.0145 -0.152631,0.0434 -0.0492,0.0241 -0.0935,0.0626 -0.13294,0.11564 -0.0394,0.0482 -0.0706,0.11084 -0.0935,0.18793 -0.023,0.0723 -0.0345,0.1542 -0.0345,0.24574 0,0.0964 0.0115,0.1807 0.0345,0.25298 0.023,0.0723 0.0542,0.13491 0.0935,0.18792 0.0394,0.053 0.0837,0.0916 0.13294,0.11565 0.0492,0.0289 0.10015,0.0434 0.152631,0.0434 0.10508,0 0.19862,-0.053 0.28064,-0.15902 z m -3.052621,-4.40175 -0.14279,1.09863 h -0.59083 v 0.73724 h 0.49236 l -0.10339,0.79506 h -0.38897 v 0.73724 h 0.29542 l -0.14279,1.10586 h 0.50221 l 0.13786,-1.10586 h 0.39389 l -0.14279,1.10586 h 0.50221 l 0.14278,-1.10586 h 0.60068 v -0.73724 h -0.50713 l 0.1034,-0.79506 h 0.40373 v -0.73724 h -0.30526 l 0.14278,-1.09863 h -0.50221 l -0.14278,1.09863 h -0.39389 l 0.14771,-1.09863 z m 5.681811,1.18537 c 0,0.17346 -0.003,0.33006 -0.01,0.4698 -0.003,0.13492 -0.01,0.26743 -0.0197,0.39754 -0.007,0.12528 -0.0165,0.25055 -0.0295,0.37584 -0.01,0.12529 -0.0214,0.26502 -0.0345,0.41922 H 102.359 c -0.0164,-0.1542 -0.0312,-0.29393 -0.0443,-0.41922 -0.01,-0.1301 -0.0197,-0.25778 -0.0295,-0.38307 -0.01,-0.12529 -0.018,-0.25539 -0.0246,-0.39031 -0.003,-0.13974 -0.005,-0.29634 -0.005,-0.4698 v -1.18537 h 0.69915 z m 0.0591,2.77548 c 0,0.18793 -0.0426,0.3349 -0.12801,0.4409 -0.082,0.106 -0.17557,0.15901 -0.28065,0.15901 -0.10507,0 -0.20018,-0.053 -0.28556,-0.15901 -0.082,-0.106 -0.12309,-0.25297 -0.12309,-0.4409 0,-0.18311 0.041,-0.32767 0.12309,-0.43367 0.0854,-0.106 0.18049,-0.15901 0.28556,-0.15901 0.10508,0 0.19863,0.053 0.28065,0.15901 0.0854,0.106 0.12801,0.25056 0.12801,0.43367 z"
     fill="#282828"
     id="path991"
     style="stroke-width:0.156986"
     inkscape:export-filename="/Users/chrisrood/Desktop/quart-wtf/logo_short.png"
     inkscape:export-xdpi="96"
     inkscape:export-ydpi="96" /></g></svg>
